<svg xmlns="http://www.w3.org/2000/svg" width="760" height="260" viewBox="0 0 760 260"><rect width="100%" height="100%" fill="#ffffff"/><style>text{font-family:-apple-system,BlinkMacSystemFont,"Segoe UI",sans-serif;fill:#172033}.axis{stroke:#9aa7b8;stroke-width:1}.grid{stroke:#e7ebf0;stroke-width:1}.label{font-size:12px}.title{font-size:18px;font-weight:700}</style><text x="24" y="30" class="title">Task 配对质量分</text><line x1="170.0" y1="50" x2="170.0" y2="225" class="grid"/><text x="170.0" y="244" text-anchor="middle" class="label">0</text><line x1="280.0" y1="50" x2="280.0" y2="225" class="grid"/><text x="280.0" y="244" text-anchor="middle" class="label">20</text><line x1="390.0" y1="50" x2="390.0" y2="225" class="grid"/><text x="390.0" y="244" text-anchor="middle" class="label">40</text><line x1="500.0" y1="50" x2="500.0" y2="225" class="grid"/><text x="500.0" y="244" text-anchor="middle" class="label">60</text><line x1="610.0" y1="50" x2="610.0" y2="225" class="grid"/><text x="610.0" y="244" text-anchor="middle" class="label">80</text><line x1="720.0" y1="50" x2="720.0" y2="225" class="grid"/><text x="720.0" y="244" text-anchor="middle" class="label">100</text><text x="160" y="64" text-anchor="end" class="label">T-PILOT-LOW</text><line x1="720.0" y1="60" x2="252.5" y2="60" stroke="#9aa7b8" stroke-width="2"/><circle cx="720.0" cy="60" r="5" fill="#315efb"/><circle cx="252.5" cy="60" r="5" fill="#00a36c"/><text x="160" y="92" text-anchor="end" class="label">T-PILOT-HIGH</text><line x1="720.0" y1="88" x2="170.0" y2="88" stroke="#9aa7b8" stroke-width="2"/><circle cx="720.0" cy="88" r="5" fill="#315efb"/><circle cx="170.0" cy="88" r="5" fill="#00a36c"/></svg>
