<svg xmlns="http://www.w3.org/2000/svg" width="760" height="436" viewBox="0 0 760 436"><rect width="100%" height="100%" fill="#ffffff"/><style>text{font-family:-apple-system,BlinkMacSystemFont,"Segoe UI",sans-serif;fill:#172033}.axis{stroke:#9aa7b8;stroke-width:1}.grid{stroke:#e7ebf0;stroke-width:1}.label{font-size:12px}.title{font-size:18px;font-weight:700}</style><text x="24" y="30" class="title">Task 配对质量分</text><line x1="170.0" y1="50" x2="170.0" y2="401" class="grid"/><text x="170.0" y="420" text-anchor="middle" class="label">0</text><line x1="280.0" y1="50" x2="280.0" y2="401" class="grid"/><text x="280.0" y="420" text-anchor="middle" class="label">20</text><line x1="390.0" y1="50" x2="390.0" y2="401" class="grid"/><text x="390.0" y="420" text-anchor="middle" class="label">40</text><line x1="500.0" y1="50" x2="500.0" y2="401" class="grid"/><text x="500.0" y="420" text-anchor="middle" class="label">60</text><line x1="610.0" y1="50" x2="610.0" y2="401" class="grid"/><text x="610.0" y="420" text-anchor="middle" class="label">80</text><line x1="720.0" y1="50" x2="720.0" y2="401" class="grid"/><text x="720.0" y="420" text-anchor="middle" class="label">100</text><text x="160" y="64" text-anchor="end" class="label">T-PILOT-HIGH</text><line x1="720.0" y1="60" x2="720.0" y2="60" stroke="#9aa7b8" stroke-width="2"/><circle cx="720.0" cy="60" r="5" fill="#315efb"/><circle cx="720.0" cy="60" r="5" fill="#00a36c"/><text x="160" y="92" text-anchor="end" class="label">T-PILOT-LOW</text><line x1="720.0" y1="88" x2="720.0" y2="88" stroke="#9aa7b8" stroke-width="2"/><circle cx="720.0" cy="88" r="5" fill="#315efb"/><circle cx="720.0" cy="88" r="5" fill="#00a36c"/><text x="160" y="120" text-anchor="end" class="label">T-EVAL-03</text><line x1="720.0" y1="116" x2="720.0" y2="116" stroke="#9aa7b8" stroke-width="2"/><circle cx="720.0" cy="116" r="5" fill="#315efb"/><circle cx="720.0" cy="116" r="5" fill="#00a36c"/><text x="160" y="148" text-anchor="end" class="label">T-EVAL-04</text><line x1="720.0" y1="144" x2="720.0" y2="144" stroke="#9aa7b8" stroke-width="2"/><circle cx="720.0" cy="144" r="5" fill="#315efb"/><circle cx="720.0" cy="144" r="5" fill="#00a36c"/><text x="160" y="176" text-anchor="end" class="label">T-EVAL-05</text><line x1="720.0" y1="172" x2="720.0" y2="172" stroke="#9aa7b8" stroke-width="2"/><circle cx="720.0" cy="172" r="5" fill="#315efb"/><circle cx="720.0" cy="172" r="5" fill="#00a36c"/><text x="160" y="204" text-anchor="end" class="label">T-EVAL-06</text><line x1="610.0" y1="200" x2="720.0" y2="200" stroke="#9aa7b8" stroke-width="2"/><circle cx="610.0" cy="200" r="5" fill="#315efb"/><circle cx="720.0" cy="200" r="5" fill="#00a36c"/><text x="160" y="232" text-anchor="end" class="label">T-EVAL-07</text><line x1="720.0" y1="228" x2="720.0" y2="228" stroke="#9aa7b8" stroke-width="2"/><circle cx="720.0" cy="228" r="5" fill="#315efb"/><circle cx="720.0" cy="228" r="5" fill="#00a36c"/><text x="160" y="260" text-anchor="end" class="label">T-EVAL-09</text><line x1="720.0" y1="256" x2="720.0" y2="256" stroke="#9aa7b8" stroke-width="2"/><circle cx="720.0" cy="256" r="5" fill="#315efb"/><circle cx="720.0" cy="256" r="5" fill="#00a36c"/><text x="160" y="288" text-anchor="end" class="label">T-EVAL-10</text><line x1="720.0" y1="284" x2="720.0" y2="284" stroke="#9aa7b8" stroke-width="2"/><circle cx="720.0" cy="284" r="5" fill="#315efb"/><circle cx="720.0" cy="284" r="5" fill="#00a36c"/><text x="160" y="316" text-anchor="end" class="label">T-EVAL-11</text><line x1="472.5" y1="312" x2="500.0" y2="312" stroke="#9aa7b8" stroke-width="2"/><circle cx="472.5" cy="312" r="5" fill="#315efb"/><circle cx="500.0" cy="312" r="5" fill="#00a36c"/><text x="160" y="344" text-anchor="end" class="label">T-EVAL-12</text><line x1="720.0" y1="340" x2="720.0" y2="340" stroke="#9aa7b8" stroke-width="2"/><circle cx="720.0" cy="340" r="5" fill="#315efb"/><circle cx="720.0" cy="340" r="5" fill="#00a36c"/><text x="160" y="372" text-anchor="end" class="label">T-EVAL-13</text><line x1="720.0" y1="368" x2="720.0" y2="368" stroke="#9aa7b8" stroke-width="2"/><circle cx="720.0" cy="368" r="5" fill="#315efb"/><circle cx="720.0" cy="368" r="5" fill="#00a36c"/></svg>
