<svg xmlns="http://www.w3.org/2000/svg" width="1080" height="720" viewBox="0 0 1080 720"><rect width="100%" height="100%" fill="#ffffff"/><style>text{font-family:-apple-system,BlinkMacSystemFont,"Segoe UI",sans-serif;fill:#172033}.axis{stroke:#9aa7b8;stroke-width:1}.grid{stroke:#e7ebf0;stroke-width:1}.label{font-size:12px}.title{font-size:18px;font-weight:700}</style><style>.panel{font-size:14px;font-weight:700}.subtitle{font-size:11px;fill:#526072}.value{font-size:9px;font-weight:600}.legend{font-size:11px;font-weight:600}.badge{font-size:12px;font-weight:700;fill:#08775b}</style><text x="24" y="30" class="title">12-task comparison · 交付质量与昂贵 Sol Token</text><text x="24" y="52" class="subtitle">Separate zero-based panels avoid implying that Token consumption causes quality changes.</text><rect x="748" y="18" width="12" height="12" rx="2" fill="#2563EB"/><text x="766" y="28" class="legend">Sol-direct / Sol 直做</text><rect x="905" y="18" width="12" height="12" rx="2" fill="#0F9F78"/><text x="923" y="28" class="legend">Hybrid / 混合方案</text><rect x="78.0" y="97" width="81.2" height="546" fill="#F8FAFC"/><rect x="240.3" y="97" width="81.2" height="546" fill="#F8FAFC"/><rect x="402.7" y="97" width="81.2" height="546" fill="#F8FAFC"/><rect x="565.0" y="97" width="81.2" height="546" fill="#F8FAFC"/><rect x="727.3" y="97" width="81.2" height="546" fill="#F8FAFC"/><rect x="889.7" y="97" width="81.2" height="546" fill="#F8FAFC"/><text x="24" y="82" class="panel">A · Gate-based quality score / 门禁质量分（0–100）</text><text x="1052" y="82" text-anchor="end" class="badge">非劣效门槛 PASS · 未观察到质量下降</text><line x1="78" y1="325.0" x2="1052" y2="325.0" class="grid"/><text x="68" y="329.0" text-anchor="end" class="label">0</text><line x1="78" y1="270.0" x2="1052" y2="270.0" class="grid"/><text x="68" y="274.0" text-anchor="end" class="label">25</text><line x1="78" y1="215.0" x2="1052" y2="215.0" class="grid"/><text x="68" y="219.0" text-anchor="end" class="label">50</text><line x1="78" y1="160.0" x2="1052" y2="160.0" class="grid"/><text x="68" y="164.0" text-anchor="end" class="label">75</text><line x1="78" y1="105.0" x2="1052" y2="105.0" class="grid"/><text x="68" y="109.0" text-anchor="end" class="label">100</text><line x1="78" y1="105" x2="78" y2="325" class="axis"/><rect x="92.9" y="105.0" width="22.7" height="220.0" fill="#2563EB" rx="2"/><text x="104.2" y="100.0" text-anchor="middle" class="value">100</text><rect x="121.6" y="105.0" width="22.7" height="220.0" fill="#0F9F78" rx="2"/><text x="132.9" y="100.0" text-anchor="middle" class="value">100</text><rect x="174.0" y="105.0" width="22.7" height="220.0" fill="#2563EB" rx="2"/><text x="185.4" y="100.0" text-anchor="middle" class="value">100</text><rect x="202.8" y="105.0" width="22.7" height="220.0" fill="#0F9F78" rx="2"/><text x="214.1" y="100.0" text-anchor="middle" class="value">100</text><rect x="255.2" y="105.0" width="22.7" height="220.0" fill="#2563EB" rx="2"/><text x="266.6" y="100.0" text-anchor="middle" class="value">100</text><rect x="283.9" y="105.0" width="22.7" height="220.0" fill="#0F9F78" rx="2"/><text x="295.3" y="100.0" text-anchor="middle" class="value">100</text><rect x="336.4" y="105.0" width="22.7" height="220.0" fill="#2563EB" rx="2"/><text x="347.7" y="100.0" text-anchor="middle" class="value">100</text><rect x="365.1" y="105.0" width="22.7" height="220.0" fill="#0F9F78" rx="2"/><text x="376.4" y="100.0" text-anchor="middle" class="value">100</text><rect x="417.5" y="105.0" width="22.7" height="220.0" fill="#2563EB" rx="2"/><text x="428.9" y="100.0" text-anchor="middle" class="value">100</text><rect x="446.2" y="105.0" width="22.7" height="220.0" fill="#0F9F78" rx="2"/><text x="457.6" y="100.0" text-anchor="middle" class="value">100</text><rect x="498.7" y="149.0" width="22.7" height="176.0" fill="#2563EB" rx="2"/><text x="510.1" y="144.0" text-anchor="middle" class="value">80</text><rect x="527.4" y="105.0" width="22.7" height="220.0" fill="#0F9F78" rx="2"/><text x="538.8" y="100.0" text-anchor="middle" class="value">100</text><rect x="579.9" y="105.0" width="22.7" height="220.0" fill="#2563EB" rx="2"/><text x="591.2" y="100.0" text-anchor="middle" class="value">100</text><rect x="608.6" y="105.0" width="22.7" height="220.0" fill="#0F9F78" rx="2"/><text x="619.9" y="100.0" text-anchor="middle" class="value">100</text><rect x="661.0" y="105.0" width="22.7" height="220.0" fill="#2563EB" rx="2"/><text x="672.4" y="100.0" text-anchor="middle" class="value">100</text><rect x="689.8" y="105.0" width="22.7" height="220.0" fill="#0F9F78" rx="2"/><text x="701.1" y="100.0" text-anchor="middle" class="value">100</text><rect x="742.2" y="105.0" width="22.7" height="220.0" fill="#2563EB" rx="2"/><text x="753.6" y="100.0" text-anchor="middle" class="value">100</text><rect x="770.9" y="105.0" width="22.7" height="220.0" fill="#0F9F78" rx="2"/><text x="782.3" y="100.0" text-anchor="middle" class="value">100</text><rect x="823.4" y="204.0" width="22.7" height="121.0" fill="#2563EB" rx="2"/><text x="834.7" y="199.0" text-anchor="middle" class="value">55</text><rect x="852.1" y="193.0" width="22.7" height="132.0" fill="#0F9F78" rx="2"/><text x="863.4" y="188.0" text-anchor="middle" class="value">60</text><rect x="904.5" y="105.0" width="22.7" height="220.0" fill="#2563EB" rx="2"/><text x="915.9" y="100.0" text-anchor="middle" class="value">100</text><rect x="933.2" y="105.0" width="22.7" height="220.0" fill="#0F9F78" rx="2"/><text x="944.6" y="100.0" text-anchor="middle" class="value">100</text><rect x="985.7" y="105.0" width="22.7" height="220.0" fill="#2563EB" rx="2"/><text x="997.1" y="100.0" text-anchor="middle" class="value">100</text><rect x="1014.4" y="105.0" width="22.7" height="220.0" fill="#0F9F78" rx="2"/><text x="1025.8" y="100.0" text-anchor="middle" class="value">100</text><text x="24" y="391" class="panel">B · Expensive Sol Tokens / 昂贵 Sol Token（含失败与返工）</text><text x="1052" y="391" text-anchor="end" class="badge">累计节省 70.79%</text><line x1="78" y1="635.0" x2="1052" y2="635.0" class="grid"/><text x="68" y="639.0" text-anchor="end" class="label">0</text><line x1="78" y1="580.0" x2="1052" y2="580.0" class="grid"/><text x="68" y="584.0" text-anchor="end" class="label">100k</text><line x1="78" y1="525.0" x2="1052" y2="525.0" class="grid"/><text x="68" y="529.0" text-anchor="end" class="label">200k</text><line x1="78" y1="470.0" x2="1052" y2="470.0" class="grid"/><text x="68" y="474.0" text-anchor="end" class="label">300k</text><line x1="78" y1="415.0" x2="1052" y2="415.0" class="grid"/><text x="68" y="419.0" text-anchor="end" class="label">400k</text><line x1="78" y1="415" x2="78" y2="635" class="axis"/><rect x="92.9" y="485.8" width="22.7" height="149.2" fill="#2563EB" rx="2"/><text x="104.2" y="480.8" text-anchor="middle" class="value">271k</text><rect x="121.6" y="596.4" width="22.7" height="38.6" fill="#0F9F78" rx="2"/><text x="132.9" y="591.4" text-anchor="middle" class="value">70k</text><text x="118.6" y="657" text-anchor="middle" class="label">P-L</text><rect x="174.0" y="454.8" width="22.7" height="180.2" fill="#2563EB" rx="2"/><text x="185.4" y="449.8" text-anchor="middle" class="value">328k</text><rect x="202.8" y="595.3" width="22.7" height="39.7" fill="#0F9F78" rx="2"/><text x="214.1" y="590.3" text-anchor="middle" class="value">72k</text><text x="199.8" y="657" text-anchor="middle" class="label">P-H</text><rect x="255.2" y="448.6" width="22.7" height="186.4" fill="#2563EB" rx="2"/><text x="266.6" y="443.6" text-anchor="middle" class="value">339k</text><rect x="283.9" y="581.7" width="22.7" height="53.3" fill="#0F9F78" rx="2"/><text x="295.3" y="576.7" text-anchor="middle" class="value">97k</text><text x="280.9" y="657" text-anchor="middle" class="label">03</text><rect x="336.4" y="467.0" width="22.7" height="168.0" fill="#2563EB" rx="2"/><text x="347.7" y="462.0" text-anchor="middle" class="value">305k</text><rect x="365.1" y="596.0" width="22.7" height="39.0" fill="#0F9F78" rx="2"/><text x="376.4" y="591.0" text-anchor="middle" class="value">71k</text><text x="362.1" y="657" text-anchor="middle" class="label">04</text><rect x="417.5" y="476.0" width="22.7" height="159.0" fill="#2563EB" rx="2"/><text x="428.9" y="471.0" text-anchor="middle" class="value">289k</text><rect x="446.2" y="581.3" width="22.7" height="53.7" fill="#0F9F78" rx="2"/><text x="457.6" y="576.3" text-anchor="middle" class="value">98k</text><text x="443.2" y="657" text-anchor="middle" class="label">05</text><rect x="498.7" y="429.4" width="22.7" height="205.6" fill="#2563EB" rx="2"/><text x="510.1" y="424.4" text-anchor="middle" class="value">374k</text><rect x="527.4" y="567.6" width="22.7" height="67.4" fill="#0F9F78" rx="2"/><text x="538.8" y="562.6" text-anchor="middle" class="value">123k</text><text x="524.4" y="657" text-anchor="middle" class="label">06</text><rect x="579.9" y="483.8" width="22.7" height="151.2" fill="#2563EB" rx="2"/><text x="591.2" y="478.8" text-anchor="middle" class="value">275k</text><rect x="608.6" y="596.2" width="22.7" height="38.8" fill="#0F9F78" rx="2"/><text x="619.9" y="591.2" text-anchor="middle" class="value">71k</text><text x="605.6" y="657" text-anchor="middle" class="label">07</text><rect x="661.0" y="493.4" width="22.7" height="141.6" fill="#2563EB" rx="2"/><text x="672.4" y="488.4" text-anchor="middle" class="value">258k</text><rect x="689.8" y="594.0" width="22.7" height="41.0" fill="#0F9F78" rx="2"/><text x="701.1" y="589.0" text-anchor="middle" class="value">74k</text><text x="686.8" y="657" text-anchor="middle" class="label">09</text><rect x="742.2" y="477.4" width="22.7" height="157.6" fill="#2563EB" rx="2"/><text x="753.6" y="472.4" text-anchor="middle" class="value">287k</text><rect x="770.9" y="596.3" width="22.7" height="38.7" fill="#0F9F78" rx="2"/><text x="782.3" y="591.3" text-anchor="middle" class="value">70k</text><text x="767.9" y="657" text-anchor="middle" class="label">10</text><rect x="823.4" y="445.6" width="22.7" height="189.4" fill="#2563EB" rx="2"/><text x="834.7" y="440.6" text-anchor="middle" class="value">344k</text><rect x="852.1" y="560.6" width="22.7" height="74.4" fill="#0F9F78" rx="2"/><text x="863.4" y="555.6" text-anchor="middle" class="value">135k</text><text x="849.1" y="657" text-anchor="middle" class="label">11</text><rect x="904.5" y="493.6" width="22.7" height="141.4" fill="#2563EB" rx="2"/><text x="915.9" y="488.6" text-anchor="middle" class="value">257k</text><rect x="933.2" y="594.4" width="22.7" height="40.6" fill="#0F9F78" rx="2"/><text x="944.6" y="589.4" text-anchor="middle" class="value">74k</text><text x="930.2" y="657" text-anchor="middle" class="label">12</text><rect x="985.7" y="485.1" width="22.7" height="149.9" fill="#2563EB" rx="2"/><text x="997.1" y="480.1" text-anchor="middle" class="value">273k</text><rect x="1014.4" y="581.9" width="22.7" height="53.1" fill="#0F9F78" rx="2"/><text x="1025.8" y="576.9" text-anchor="middle" class="value">97k</text><text x="1011.4" y="657" text-anchor="middle" class="label">13</text><text x="565.0" y="680" text-anchor="middle" class="label">Task ID（P-H/P-L 为原始 high/low Pilot）</text><text x="24" y="706" class="subtitle">Bars: mechanical gate scores; verdict: paired task_success. Token counts include every unique expensive Sol Session; cheap-model usage remains auditable.</text></svg>
